<svg xmlns="http://www.w3.org/2000/svg" width="1024" height="1024" viewBox="0 0 1024 1024">
  <g id="Сгруппировать_7796" data-name="Сгруппировать 7796" transform="translate(-7829 1152)">
    <g id="Сгруппировать_7751" data-name="Сгруппировать 7751" transform="translate(1173 -3213)">
      <rect id="Прямоугольник_11181" data-name="Прямоугольник 11181" width="1024" height="1024" transform="translate(6656 2061)" fill="#f7f5fd"/>
      <path id="Безымянный-1" d="M4237.5,2465.75h-157a70,70,0,0,0-70,70v157a70,70,0,0,0,70,70h157a70,70,0,0,0,70-70v-157A70,70,0,0,0,4237.5,2465.75Zm-141,47c18.778,0,34,15.446,34,34.5s-15.222,34.5-34,34.5-34-15.446-34-34.5S4077.72,2512.75,4096.5,2512.75Zm164.821,191.955c-21.117,31.43-74.91,25.73-109.869,25.73s-94.122,3.568-103.159-23.547c-5.707-32.1,25.143-55.647,40.125-55.647,22.117,0,45.912,63.454,77.3,27.069s33.1-72.015,60.927-72.015c34.675,0,59.775,61.045,34.675,98.415Z" transform="translate(3008.5 -41.75)" fill="#dee3e7"/>
    </g>
  </g>
</svg>
