<svg width="181" height="180" viewBox="0 0 181 180" fill="none" xmlns="http://www.w3.org/2000/svg">
<g clip-path="url(#clip0_546_41)">
<path d="M180 0H0V180H180V0Z" fill="#3A3A3C"/>
<path d="M180.1 180H0.175131C-1.67687 124.37 43.6931 127.037 66.4751 113.7C72.8261 109.982 73.5281 99.872 69.7341 94.44C55.4481 74 54.0261 62.148 55.8001 44.667C58.7081 16.073 87.2081 14.741 87.2081 14.741H93.0601C93.0601 14.741 121.56 16.073 124.467 44.667C126.245 62.148 124.823 74 110.542 94.444C106.742 99.876 107.449 109.986 113.801 113.704C136.582 127.037 181.953 124.37 180.1 180Z" fill="#6F6F73"/>
</g>
<defs>
<clipPath id="clip0_546_41">
<rect width="180.155" height="180" fill="white"/>
</clipPath>
</defs>
</svg>
