<svg width="1024" height="1024" viewBox="0 0 1024 1024" fill="none" xmlns="http://www.w3.org/2000/svg">
<g clip-path="url(#clip0_4429_107)">
<path d="M1024 0H0V1024H1024V0Z" fill="#3A3A3C"/>
<path d="M590 363H433C414.435 363 396.63 370.375 383.502 383.502C370.375 396.63 363 414.435 363 433V590C363 608.565 370.375 626.37 383.502 639.498C396.63 652.625 414.435 660 433 660H590C608.565 660 626.37 652.625 639.498 639.498C652.625 626.37 660 608.565 660 590V433C660 414.435 652.625 396.63 639.498 383.502C626.37 370.375 608.565 363 590 363V363ZM449 410C467.778 410 483 425.446 483 444.5C483 463.554 467.778 479 449 479C430.222 479 415 463.554 415 444.5C415 425.446 430.22 410 449 410ZM613.821 601.955C592.704 633.385 538.911 627.685 503.952 627.685C468.993 627.685 409.83 631.253 400.793 604.138C395.086 572.038 425.936 548.491 440.918 548.491C463.035 548.491 486.83 611.945 518.218 575.56C549.606 539.175 551.318 503.545 579.145 503.545C613.82 503.545 638.92 564.59 613.82 601.96L613.821 601.955Z" fill="#6F6F73"/>
</g>
<defs>
<clipPath id="clip0_4429_107">
<rect width="1024" height="1024" fill="white"/>
</clipPath>
</defs>
</svg>
